<mxfile host="Electron" modified="2024-04-22T16:12:19.651Z" agent="Mozilla/5.0 (Macintosh; Intel Mac OS X 10_15_7) AppleWebKit/537.36 (KHTML, like Gecko) draw.io/24.1.0 Chrome/120.0.6099.109 Electron/28.1.0 Safari/537.36" etag="RpWQ6g2u39BUMZ9DV53g" version="24.1.0" type="device">
  <diagram name="第 1 页" id="Ss8TT26-PerxJZT9cb_9">
    <mxGraphModel dx="1354" dy="625" grid="1" gridSize="10" guides="1" tooltips="1" connect="1" arrows="1" fold="1" page="0" pageScale="1" pageWidth="827" pageHeight="1169" math="0" shadow="0">
      <root>
        <mxCell id="0" />
        <mxCell id="1" parent="0" />
        <mxCell id="4s2ozs57y_mnEicYnXWT-1" value="" style="rounded=0;whiteSpace=wrap;html=1;fontFamily=Comic Sans MS;fontSize=13;" parent="1" vertex="1">
          <mxGeometry x="31" y="590" width="350" height="140" as="geometry" />
        </mxCell>
        <mxCell id="4s2ozs57y_mnEicYnXWT-2" style="edgeStyle=orthogonalEdgeStyle;rounded=0;orthogonalLoop=1;jettySize=auto;html=1;entryX=0;entryY=0.5;entryDx=0;entryDy=0;fontFamily=Comic Sans MS;fontSize=13;" parent="1" source="4s2ozs57y_mnEicYnXWT-3" target="4s2ozs57y_mnEicYnXWT-7" edge="1">
          <mxGeometry relative="1" as="geometry" />
        </mxCell>
        <mxCell id="4s2ozs57y_mnEicYnXWT-3" value="Socket Source" style="rounded=0;whiteSpace=wrap;html=1;fontFamily=Comic Sans MS;fontSize=13;" parent="1" vertex="1">
          <mxGeometry x="-150" y="370" width="120" height="60" as="geometry" />
        </mxCell>
        <mxCell id="4s2ozs57y_mnEicYnXWT-4" style="edgeStyle=orthogonalEdgeStyle;rounded=0;orthogonalLoop=1;jettySize=auto;html=1;entryX=0;entryY=0.5;entryDx=0;entryDy=0;fontFamily=Comic Sans MS;fontSize=13;" parent="1" target="4s2ozs57y_mnEicYnXWT-10" edge="1">
          <mxGeometry relative="1" as="geometry">
            <mxPoint x="400" y="400" as="sourcePoint" />
          </mxGeometry>
        </mxCell>
        <mxCell id="4s2ozs57y_mnEicYnXWT-5" style="edgeStyle=orthogonalEdgeStyle;rounded=0;orthogonalLoop=1;jettySize=auto;html=1;entryX=0;entryY=0.5;entryDx=0;entryDy=0;fontFamily=Comic Sans MS;fontSize=13;" parent="1" target="4s2ozs57y_mnEicYnXWT-8" edge="1">
          <mxGeometry relative="1" as="geometry">
            <mxPoint x="400" y="400" as="sourcePoint" />
          </mxGeometry>
        </mxCell>
        <mxCell id="4s2ozs57y_mnEicYnXWT-6" style="edgeStyle=orthogonalEdgeStyle;rounded=0;orthogonalLoop=1;jettySize=auto;html=1;entryX=0;entryY=0.5;entryDx=0;entryDy=0;fontFamily=Comic Sans MS;fontSize=13;exitX=1;exitY=0.5;exitDx=0;exitDy=0;" parent="1" target="4s2ozs57y_mnEicYnXWT-12" edge="1">
          <mxGeometry relative="1" as="geometry">
            <mxPoint x="286" y="400" as="sourcePoint" />
            <mxPoint x="536" y="500" as="targetPoint" />
            <Array as="points">
              <mxPoint x="466" y="400" />
              <mxPoint x="466" y="500" />
            </Array>
          </mxGeometry>
        </mxCell>
        <mxCell id="4s2ozs57y_mnEicYnXWT-7" value="ExpressionOperator" style="rounded=0;whiteSpace=wrap;html=1;fontFamily=Comic Sans MS;fontSize=13;" parent="1" vertex="1">
          <mxGeometry x="120" y="370" width="200" height="60" as="geometry" />
        </mxCell>
        <mxCell id="4s2ozs57y_mnEicYnXWT-8" value="calcOperator" style="rounded=0;whiteSpace=wrap;html=1;fontFamily=Comic Sans MS;fontSize=13;" parent="1" vertex="1">
          <mxGeometry x="530" y="270" width="120" height="60" as="geometry" />
        </mxCell>
        <mxCell id="4s2ozs57y_mnEicYnXWT-9" style="edgeStyle=orthogonalEdgeStyle;rounded=0;orthogonalLoop=1;jettySize=auto;html=1;entryX=0;entryY=0.5;entryDx=0;entryDy=0;fontFamily=Comic Sans MS;fontSize=13;" parent="1" target="4s2ozs57y_mnEicYnXWT-13" edge="1">
          <mxGeometry relative="1" as="geometry">
            <mxPoint x="660" y="400" as="sourcePoint" />
          </mxGeometry>
        </mxCell>
        <mxCell id="4s2ozs57y_mnEicYnXWT-10" value="calcOperator" style="rounded=0;whiteSpace=wrap;html=1;fontFamily=Comic Sans MS;fontSize=13;" parent="1" vertex="1">
          <mxGeometry x="530" y="370" width="120" height="60" as="geometry" />
        </mxCell>
        <mxCell id="4s2ozs57y_mnEicYnXWT-11" style="edgeStyle=orthogonalEdgeStyle;rounded=0;orthogonalLoop=1;jettySize=auto;html=1;entryX=1;entryY=0.5;entryDx=0;entryDy=0;dashed=1;" parent="1" source="4s2ozs57y_mnEicYnXWT-12" target="4s2ozs57y_mnEicYnXWT-14" edge="1">
          <mxGeometry relative="1" as="geometry">
            <Array as="points">
              <mxPoint x="580" y="650" />
            </Array>
          </mxGeometry>
        </mxCell>
        <mxCell id="4s2ozs57y_mnEicYnXWT-12" value="calcOperator" style="rounded=0;whiteSpace=wrap;html=1;fontFamily=Comic Sans MS;fontSize=13;" parent="1" vertex="1">
          <mxGeometry x="530" y="470" width="120" height="60" as="geometry" />
        </mxCell>
        <mxCell id="4s2ozs57y_mnEicYnXWT-13" value="Sink" style="rounded=0;whiteSpace=wrap;html=1;fontFamily=Comic Sans MS;fontSize=13;" parent="1" vertex="1">
          <mxGeometry x="770" y="370" width="120" height="60" as="geometry" />
        </mxCell>
        <mxCell id="4s2ozs57y_mnEicYnXWT-14" value="OperatorCoordinator&lt;br&gt;&lt;b&gt;&lt;font color=&quot;#ff0000&quot;&gt;统计 flush 成功的 subtask 个数&lt;/font&gt;&lt;/b&gt;" style="rounded=0;whiteSpace=wrap;html=1;fontFamily=Comic Sans MS;fontSize=13;" parent="1" vertex="1">
          <mxGeometry x="120" y="620" width="210" height="60" as="geometry" />
        </mxCell>
        <mxCell id="4s2ozs57y_mnEicYnXWT-15" value="JobMaster" style="text;html=1;strokeColor=none;fillColor=none;align=center;verticalAlign=middle;whiteSpace=wrap;rounded=0;fontFamily=Comic Sans MS;fontSize=13;" parent="1" vertex="1">
          <mxGeometry x="71" y="680" width="100" height="40" as="geometry" />
        </mxCell>
        <mxCell id="4s2ozs57y_mnEicYnXWT-16" value="" style="endArrow=classic;html=1;rounded=0;entryX=0;entryY=0.5;entryDx=0;entryDy=0;" parent="1" target="4s2ozs57y_mnEicYnXWT-3" edge="1">
          <mxGeometry width="50" height="50" relative="1" as="geometry">
            <mxPoint x="-220" y="400" as="sourcePoint" />
            <mxPoint x="-230" y="350" as="targetPoint" />
          </mxGeometry>
        </mxCell>
        <mxCell id="4s2ozs57y_mnEicYnXWT-17" value="实现一个动态规则引擎&lt;br&gt;数据源，会产生两类数据：&lt;br&gt;&lt;span style=&quot;white-space: pre;&quot;&gt;&#x9;&lt;/span&gt;1.数据&lt;br&gt;&lt;span style=&quot;white-space: pre;&quot;&gt;&#x9;&lt;/span&gt;2.运算表达式&lt;br&gt;&lt;br&gt;功能：&lt;br&gt;&lt;span style=&quot;white-space: pre;&quot;&gt;&#x9;&lt;/span&gt;对获取的数据按照运算表达式进行运算并输出结果&lt;br&gt;&lt;span style=&quot;white-space: pre;&quot;&gt;&#x9;&lt;/span&gt;运算表达式可动态更新&lt;br&gt;&lt;span style=&quot;white-space: pre;&quot;&gt;&#x9;&lt;/span&gt;做运算的任务可以是多并行的&lt;br&gt;&lt;br&gt;要求：&amp;nbsp;&lt;br&gt;要求有一个表达式管理协调器，负责管理收到过的表达式&lt;br&gt;要求在一个表达式到达时，要能确保计算任务都已经完成新表达式之前达到的数据" style="rounded=0;whiteSpace=wrap;html=1;align=left;" parent="1" vertex="1">
          <mxGeometry x="-390" y="80" width="690" height="230" as="geometry" />
        </mxCell>
        <mxCell id="4s2ozs57y_mnEicYnXWT-18" value="数据 | 表达式" style="text;html=1;strokeColor=none;fillColor=none;align=center;verticalAlign=middle;whiteSpace=wrap;rounded=0;" parent="1" vertex="1">
          <mxGeometry x="18" y="373" width="80" height="30" as="geometry" />
        </mxCell>
        <mxCell id="4s2ozs57y_mnEicYnXWT-19" value="1. 如果收到表达式变更事件，要去通知表达式管理器" style="text;html=1;strokeColor=none;fillColor=none;align=center;verticalAlign=middle;whiteSpace=wrap;rounded=0;" parent="1" vertex="1">
          <mxGeometry x="20" y="470" width="120" height="50" as="geometry" />
        </mxCell>
        <mxCell id="4s2ozs57y_mnEicYnXWT-20" value="" style="endArrow=classic;html=1;rounded=0;exitX=0.5;exitY=1;exitDx=0;exitDy=0;" parent="1" edge="1">
          <mxGeometry width="50" height="50" relative="1" as="geometry">
            <mxPoint x="210" y="429" as="sourcePoint" />
            <mxPoint x="210" y="610" as="targetPoint" />
          </mxGeometry>
        </mxCell>
        <mxCell id="4s2ozs57y_mnEicYnXWT-21" value="2. 广播 flush 通知" style="text;html=1;strokeColor=none;fillColor=none;align=center;verticalAlign=middle;whiteSpace=wrap;rounded=0;" parent="1" vertex="1">
          <mxGeometry x="340" y="370" width="110" height="30" as="geometry" />
        </mxCell>
        <mxCell id="4s2ozs57y_mnEicYnXWT-22" value="" style="endArrow=classic;html=1;rounded=0;exitX=0.143;exitY=1.033;exitDx=0;exitDy=0;exitPerimeter=0;" parent="1" source="4s2ozs57y_mnEicYnXWT-7" edge="1">
          <mxGeometry width="50" height="50" relative="1" as="geometry">
            <mxPoint x="220" y="440" as="sourcePoint" />
            <mxPoint x="149" y="610" as="targetPoint" />
          </mxGeometry>
        </mxCell>
        <mxCell id="4s2ozs57y_mnEicYnXWT-23" value="3.请求释放&lt;br&gt;（本身是个阻塞）" style="text;html=1;strokeColor=none;fillColor=default;align=center;verticalAlign=middle;whiteSpace=wrap;rounded=0;" parent="1" vertex="1">
          <mxGeometry x="171" y="470" width="99" height="50" as="geometry" />
        </mxCell>
        <mxCell id="4s2ozs57y_mnEicYnXWT-24" value="" style="endArrow=classic;html=1;rounded=0;dashed=1;" parent="1" edge="1">
          <mxGeometry width="50" height="50" relative="1" as="geometry">
            <mxPoint x="280" y="610" as="sourcePoint" />
            <mxPoint x="280" y="432" as="targetPoint" />
          </mxGeometry>
        </mxCell>
        <mxCell id="4s2ozs57y_mnEicYnXWT-25" value="5.返回释放响应" style="text;html=1;strokeColor=none;fillColor=default;align=center;verticalAlign=middle;whiteSpace=wrap;rounded=0;" parent="1" vertex="1">
          <mxGeometry x="270" y="520" width="99" height="50" as="geometry" />
        </mxCell>
        <mxCell id="4s2ozs57y_mnEicYnXWT-26" value="4.汇报 flush 完成" style="text;html=1;strokeColor=none;fillColor=default;align=center;verticalAlign=middle;whiteSpace=wrap;rounded=0;" parent="1" vertex="1">
          <mxGeometry x="440" y="620" width="99" height="50" as="geometry" />
        </mxCell>
      </root>
    </mxGraphModel>
  </diagram>
</mxfile>
